<?xml version="1.0" encoding="UTF-8"?>
<svg id="Capa_1" data-name="Capa 1" xmlns="http://www.w3.org/2000/svg" viewBox="0 0 33.23 33.23">
  <path d="M16.61,33.23C7.38,33.2-.03,25.74,0,16.51,.03,7.42,7.52-.03,16.61,0c9.22,.03,16.64,7.48,16.62,16.68-.03,9.13-7.51,16.58-16.62,16.56Zm.02-3.03c7.54-.05,13.6-6.13,13.56-13.61-.03-7.55-6.15-13.61-13.69-13.56-7.5,.04-13.54,6.19-13.49,13.74,.05,7.41,6.2,13.49,13.62,13.44Z"/>
  <path d="M9.55,17.72c.72-.71,1.42-1.41,2.13-2.12,1.12,1.11,2.25,2.24,3.4,3.39,2.67-2.67,5.32-5.32,7.96-7.96,.73,.74,1.42,1.43,2.14,2.15-.05,.06-.12,.15-.2,.23-2.89,2.89-5.77,5.77-8.66,8.66-.79,.79-1.63,.79-2.43,0-1.39-1.39-2.78-2.78-4.17-4.17-.06-.06-.12-.14-.17-.19Z"/>
</svg>