<?xml version="1.0" encoding="UTF-8"?>
<svg id="Capa_1" data-name="Capa 1" xmlns="http://www.w3.org/2000/svg" viewBox="0 0 4.19 7.64">
  <defs>
    <style>
      .cls-1 {
        fill: #4d4d4d;
      }
    </style>
  </defs>
  <path class="cls-1" d="M3.44,7.64c-.21,0-.42-.09-.56-.26L.19,4.31c-.27-.31-.24-.79,.07-1.06,.31-.27,.78-.24,1.06,.07l2.69,3.07c.27,.31,.24,.79-.07,1.06-.14,.12-.32,.19-.49,.19Z"/>
  <path class="cls-1" d="M.75,4.57c-.18,0-.35-.06-.49-.19-.31-.27-.34-.75-.07-1.06L2.88,.26c.27-.31,.75-.34,1.06-.07,.31,.27,.34,.75,.07,1.06L1.31,4.31c-.15,.17-.36,.26-.56,.26Z"/>
</svg>