<?xml version="1.0" encoding="UTF-8"?>
<svg id="Capa_1" data-name="Capa 1" xmlns="http://www.w3.org/2000/svg" viewBox="0 0 187.22 186.98">
  <defs>
    <style>
      .cls-1 {
        fill: none;
        stroke: #fff;
        stroke-miterlimit: 10;
      }

      .cls-2 {
        fill: #b9bec4;
      }
    </style>
  </defs>
  <rect class="cls-1" width="186.98" height="186.98" rx="2" ry="2"/>
  <path class="cls-2" d="M82.74,114.02c-4.84-1.23-9.66-2.05-14.2-3.68-11.93-4.27-18.33-13.2-20.12-25.52-1.02-7.05-1.44-14.17,1.73-20.86,1.27-2.69,3.14-5.09,4.64-7.67,.36-.62,.64-1.55,.45-2.19-1.68-5.76-1.27-11.42,.41-17.11,.55-1.86,1.54-2.6,3.22-2.12,3.95,1.14,7.86,2.43,11.76,3.74,1,.34,1.99,.88,2.81,1.54,2.75,2.2,5.56,2.55,9.1,1.75,10.91-2.46,21.85-2.09,32.74,.56,.95,.23,2.26-.18,3.15-.71,4.73-2.86,9.54-5.46,15.02-6.61,4.21-.88,4.66-.71,5.83,3.4,1.46,5.14,1.53,10.28,.12,15.46-.18,.66,.04,1.7,.48,2.23,6.46,7.68,8.05,16.64,6.55,26.2-.7,4.47-1.73,9.04-3.57,13.14-4.3,9.6-12.66,14.18-22.5,16.45-2.78,.64-5.6,1.08-8.69,1.66,5.11,5.52,5.07,12.25,4.98,18.99-.07,5.01-.07,10.03-.12,15.04-.02,1.8,.21,3.45,2.18,4.59h-42.91c2.46-.8,2.32-3,2.29-5.22-.06-3.64-.02-7.29-.02-10.65-4.15,0-8.15,.38-12.05-.08-6.56-.78-11.48-4.28-14.11-10.46-2.09-4.93-4.86-9.19-9.51-12.1-.95-.6-1.45-1.92-2.16-2.91,1.24-.37,2.52-1.14,3.72-1.03,5.18,.44,8.82,3.46,11.53,7.66,2.32,3.59,5.06,6.57,9.3,7.83,4.32,1.29,8.49,.57,12.55-1.07,.43-.17,.88-.78,.95-1.25,.56-3.49,2.1-6.49,4.43-8.98Z"/>
</svg>