<?xml version="1.0" encoding="UTF-8"?>
<svg id="Capa_1" data-name="Capa 1" xmlns="http://www.w3.org/2000/svg" viewBox="0 0 187.22 186.98">
  <defs>
    <style>
      .cls-1 {
        fill: none;
        stroke: #fff;
        stroke-miterlimit: 10;
      }

      .cls-2 {
        fill: #b9bec4;
      }
    </style>
  </defs>
  <g>
    <path class="cls-2" d="M76.61,73.95h23.07v10.26c.55-.34,.76-.39,.86-.54,6.43-9.62,15.81-12.49,26.75-11.6,2.65,.22,5.31,.77,7.85,1.55,8.69,2.67,13.5,9.02,15.44,17.54,1.05,4.6,1.7,9.37,1.77,14.08,.23,15.17,.1,30.35,.11,45.53,0,.38-.05,.76-.09,1.34h-24.32c0-.89,0-1.77,0-2.66,0-12.57,.05-25.14-.06-37.71-.03-3.04-.33-6.13-.92-9.11-1.25-6.24-5.37-9.42-11.75-9.42-7.6,0-12.44,3.95-13.75,11.48-.46,2.62-.64,5.32-.65,7.99-.07,12.34-.03,24.68-.03,37.02,0,.82,0,1.64,0,2.59h-24.28V73.95Z"/>
    <path class="cls-2" d="M36.75,73.89h24.07v78.41h-24.07V73.89Z"/>
    <path class="cls-2" d="M62.94,48.75c.04,7.8-6.3,14.33-13.99,14.42-7.61,.09-14.14-6.44-14.21-14.2-.07-7.85,6.19-14.23,14-14.27,7.88-.04,14.16,6.18,14.2,14.06Z"/>
  </g>
  <rect class="cls-1" width="186.98" height="186.98" rx="2" ry="2"/>
</svg>