<?xml version="1.0" encoding="UTF-8"?>
<svg id="Capa_1" data-name="Capa 1" xmlns="http://www.w3.org/2000/svg" viewBox="0 0 173.09 25.28">
  <defs>
    <style>
      .cls-1 {
        fill: #fff;
      }

      .cls-2 {
        fill: #f95122;
      }
    </style>
  </defs>
  <path class="cls-1" d="M11.07,25.28c-3.61,0-6.35-1-8.24-3.01C.94,20.27,0,17.42,0,13.73c0-1.83,.29-3.47,.86-4.91,.58-1.44,1.37-2.66,2.37-3.65,1-.99,2.2-1.74,3.58-2.26,1.39-.51,2.89-.77,4.51-.77,.94,0,1.79,.07,2.56,.21,.77,.14,1.44,.3,2.02,.48,.58,.18,1.06,.37,1.44,.56,.38,.19,.66,.34,.83,.45l-1.44,4.03c-.68-.36-1.48-.67-2.38-.93-.91-.26-1.94-.38-3.09-.38-.77,0-1.52,.13-2.26,.38-.74,.26-1.39,.67-1.95,1.23s-1.02,1.3-1.36,2.19-.51,1.98-.51,3.26c0,1.02,.11,1.98,.34,2.86s.59,1.65,1.09,2.29c.5,.64,1.16,1.15,1.97,1.52,.81,.37,1.79,.56,2.94,.56,.73,0,1.38-.04,1.95-.13,.58-.08,1.09-.19,1.54-.3,.45-.12,.84-.25,1.18-.4,.34-.15,.65-.29,.93-.42l1.38,4c-.7,.43-1.7,.81-2.98,1.15-1.28,.34-2.76,.51-4.45,.51Z"/>
  <path class="cls-1" d="M42.02,13.73c0,1.9-.28,3.57-.85,5.01-.57,1.44-1.34,2.65-2.32,3.62-.98,.97-2.15,1.7-3.5,2.19-1.35,.49-2.81,.74-4.37,.74s-2.94-.25-4.29-.74c-1.34-.49-2.52-1.22-3.52-2.19-1-.97-1.79-2.18-2.37-3.62-.58-1.44-.86-3.11-.86-5.01s.3-3.57,.9-5.01c.6-1.44,1.4-2.65,2.42-3.63,1.01-.98,2.19-1.72,3.52-2.21,1.33-.49,2.74-.74,4.21-.74s2.94,.25,4.29,.74c1.34,.49,2.52,1.23,3.52,2.21,1,.98,1.79,2.19,2.37,3.63,.58,1.44,.86,3.11,.86,5.01Zm-16.93,0c0,1.09,.13,2.07,.4,2.94,.27,.88,.65,1.63,1.15,2.26,.5,.63,1.11,1.11,1.84,1.46,.73,.34,1.56,.51,2.5,.51s1.74-.17,2.48-.51c.74-.34,1.35-.83,1.86-1.46,.5-.63,.88-1.38,1.15-2.26,.27-.87,.4-1.86,.4-2.94s-.13-2.07-.4-2.96c-.27-.89-.65-1.64-1.15-2.27-.5-.63-1.12-1.11-1.86-1.46-.74-.34-1.56-.51-2.48-.51s-1.77,.18-2.5,.53c-.73,.35-1.34,.84-1.84,1.47-.5,.63-.89,1.39-1.15,2.27-.27,.89-.4,1.86-.4,2.93Z"/>
  <path class="cls-1" d="M61.06,24.83c-1.43-2.54-2.98-5.04-4.64-7.52-1.66-2.47-3.43-4.81-5.31-7.01v14.53h-4.93V2.66h4.06c.7,.7,1.48,1.57,2.34,2.59,.85,1.02,1.72,2.12,2.61,3.28,.89,1.16,1.77,2.37,2.64,3.62,.87,1.25,1.7,2.45,2.46,3.6V2.66h4.96V24.83h-4.19Z"/>
  <path class="cls-1" d="M89.79,13.73c0,1.92-.3,3.6-.9,5.02-.6,1.43-1.45,2.61-2.54,3.55-1.1,.94-2.44,1.64-4.02,2.11-1.58,.47-3.35,.7-5.31,.7-.9,0-1.94-.04-3.14-.11-1.2-.07-2.37-.23-3.52-.46V2.94c1.15-.21,2.35-.36,3.6-.43s2.32-.11,3.22-.11c1.9,0,3.62,.21,5.17,.64,1.55,.43,2.87,1.1,3.98,2.02,1.11,.92,1.96,2.09,2.56,3.52s.9,3.15,.9,5.15Zm-14.43,7.04c.23,.02,.51,.04,.82,.05,.31,.01,.68,.02,1.1,.02,2.5,0,4.35-.63,5.55-1.89,1.21-1.26,1.81-3,1.81-5.22s-.58-4.08-1.73-5.28-2.98-1.79-5.47-1.79c-.34,0-.69,0-1.06,.02-.36,.01-.7,.04-1.02,.08v14.02Z"/>
  <path class="cls-1" d="M115.07,13.73c0,1.9-.28,3.57-.85,5.01-.57,1.44-1.34,2.65-2.32,3.62-.98,.97-2.15,1.7-3.5,2.19-1.35,.49-2.81,.74-4.37,.74s-2.94-.25-4.29-.74c-1.34-.49-2.52-1.22-3.52-2.19-1-.97-1.79-2.18-2.37-3.62-.58-1.44-.86-3.11-.86-5.01s.3-3.57,.9-5.01c.6-1.44,1.4-2.65,2.42-3.63,1.01-.98,2.19-1.72,3.52-2.21,1.33-.49,2.74-.74,4.21-.74s2.94,.25,4.29,.74c1.34,.49,2.52,1.23,3.52,2.21,1,.98,1.79,2.19,2.37,3.63,.58,1.44,.86,3.11,.86,5.01Zm-16.93,0c0,1.09,.13,2.07,.4,2.94,.27,.88,.65,1.63,1.15,2.26,.5,.63,1.11,1.11,1.84,1.46,.73,.34,1.56,.51,2.5,.51s1.74-.17,2.48-.51c.74-.34,1.35-.83,1.86-1.46,.5-.63,.88-1.38,1.15-2.26,.27-.87,.4-1.86,.4-2.94s-.13-2.07-.4-2.96c-.27-.89-.65-1.64-1.15-2.27-.5-.63-1.12-1.11-1.86-1.46-.74-.34-1.56-.51-2.48-.51s-1.77,.18-2.5,.53c-.73,.35-1.34,.84-1.84,1.47-.5,.63-.89,1.39-1.15,2.27-.27,.89-.4,1.86-.4,2.93Z"/>
  <path class="cls-2" d="M125.63,25.15c-1.39-.02-2.51-.17-3.38-.45-.86-.28-1.55-.67-2.05-1.17-.5-.5-.84-1.11-1.02-1.82-.18-.71-.27-1.52-.27-2.42V.77l4.77-.77V18.34c0,.43,.03,.81,.1,1.15,.06,.34,.19,.63,.37,.86,.18,.23,.44,.43,.78,.58s.8,.25,1.38,.29l-.67,3.94Z"/>
  <path class="cls-2" d="M134.24,3.14c0,.88-.28,1.56-.85,2.06-.57,.5-1.23,.75-2,.75s-1.44-.25-2-.75c-.57-.5-.85-1.19-.85-2.06s.28-1.56,.85-2.06c.56-.5,1.23-.75,2-.75s1.43,.25,2,.75c.56,.5,.85,1.19,.85,2.06Zm-.45,21.7h-4.77V8h4.77V24.83Z"/>
  <path class="cls-2" d="M138.27,8.58c.81-.23,1.86-.45,3.14-.66,1.28-.2,2.62-.3,4.03-.3s2.62,.19,3.57,.56c.95,.37,1.7,.9,2.26,1.58,.55,.68,.95,1.49,1.18,2.43,.23,.94,.35,1.98,.35,3.14v9.5h-4.77V15.9c0-1.54-.2-2.62-.61-3.26-.41-.64-1.16-.96-2.27-.96-.34,0-.7,.02-1.09,.05-.38,.03-.73,.07-1.02,.11v12.99h-4.77V8.58Z"/>
  <path class="cls-2" d="M161.89,14.04c.47-.51,.95-1.04,1.45-1.59,.5-.55,.99-1.1,1.45-1.64,.47-.54,.91-1.05,1.33-1.54,.42-.49,.77-.91,1.07-1.27h5.67c-1.13,1.3-2.23,2.54-3.31,3.72s-2.26,2.4-3.54,3.66c.64,.58,1.3,1.27,1.98,2.07,.68,.8,1.34,1.63,1.98,2.48s1.23,1.71,1.76,2.56c.53,.85,.98,1.63,1.34,2.34h-5.48c-.34-.56-.73-1.17-1.17-1.84-.44-.67-.9-1.35-1.39-2.02-.49-.67-1.01-1.32-1.55-1.94-.54-.62-1.08-1.14-1.61-1.57v7.38h-4.77V.77l4.77-.77V14.04Z"/>
</svg>